<?xml version="1.0" encoding="utf-8"?>
<!-- Generator: Adobe Illustrator 24.0.0, SVG Export Plug-In . SVG Version: 6.00 Build 0)  -->
<svg version="1.1" id="Layer_1" xmlns="http://www.w3.org/2000/svg" xmlns:xlink="http://www.w3.org/1999/xlink" x="0px" y="0px"
	 viewBox="0 0 1000 1000" style="enable-background:new 0 0 1000 1000;" xml:space="preserve">
<style type="text/css">
	.st0{fill:#0157A0;}
	.st1{fill:#96D3F5;}
</style>
<g>
	<g>
		<g>
			<path class="st0" d="M464.4,445h10v45.1h-10V445z"/>
			<path class="st0" d="M536.4,445h10v45.1h-10l-21.5-28.3v28.3h-10V445h9.4l22.1,29V445z"/>
			<path class="st0" d="M607.7,445v8.8h-20.9v9.7h19.9v8.8h-19.9v17.7h-10V445H607.7z"/>
			<path class="st0" d="M635.6,445h10v45.1h-10V445z"/>
			<path class="st0" d="M707.6,445h10v45.1h-10l-21.5-28.3v28.3h-10V445h9.4l22.1,29V445z"/>
			<path class="st0" d="M748.1,445h10v45.1h-10V445z"/>
			<path class="st0" d="M807.7,453.7v36.4h-10v-36.4h-12.8V445h35.5v8.7H807.7z"/>
			<path class="st0" d="M866.4,490.1h-10v-17.8L840.8,445h10.9l9.7,16.8l9.7-16.8h10.9l-15.6,27.3V490.1z"/>
		</g>
		<g>
			<path class="st0" d="M544.3,517.3c-1,0.7-1.5,1.9-1.5,3.1c0,1.3,0.6,2.4,1.8,3.1c1.2,0.7,4,1.6,8.3,2.8c4.3,1,7.7,2.7,10,4.7
				c2.4,2.1,3.5,5.2,3.5,9.3s-1.5,7.4-4.6,9.9c-3.1,2.5-7.1,3.8-11.9,3.8c-7.1,0-13.6-2.7-19.3-8l6-7.4c4.9,4.3,9.3,6.3,13.4,6.3
				c1.9,0,3.2-0.4,4.4-1.2c1-0.7,1.6-1.9,1.6-3.2s-0.6-2.4-1.6-3.2c-1.2-0.7-3.4-1.6-6.6-2.4c-5.3-1.2-9.1-2.8-11.5-4.9
				c-2.4-2.1-3.7-5.2-3.7-9.4s1.5-7.5,4.6-9.9c3.1-2.4,6.9-3.5,11.5-3.5c2.9,0,6,0.4,9,1.5c2.9,1,5.6,2.5,7.8,4.4l-5.2,7.4
				c-4-2.9-8-4.4-12.1-4.4C546.6,516.2,545.3,516.6,544.3,517.3z"/>
			<path class="st0" d="M632.1,547.3c-4.6,4.4-10.2,6.6-16.8,6.6c-6.6,0-12.2-2.2-16.8-6.6c-4.6-4.4-6.8-10-6.8-16.6
				c0-6.6,2.2-12.1,6.8-16.6c4.6-4.4,10.2-6.6,16.8-6.6c6.6,0,12.2,2.2,16.8,6.6c4.6,4.4,6.8,10,6.8,16.6
				C639,537.2,636.7,542.7,632.1,547.3z M628.7,530.6c0-4-1.3-7.5-3.8-10.3c-2.5-2.8-5.7-4.3-9.6-4.3s-6.9,1.5-9.6,4.3
				c-2.5,2.8-3.8,6.3-3.8,10.3c0,4,1.3,7.4,3.8,10.3c2.7,2.8,5.7,4.3,9.6,4.3s6.9-1.5,9.6-4.3C627.4,538.1,628.7,534.6,628.7,530.6z
				"/>
			<path class="st0" d="M666.9,553.4v-45.1h10v36.1H696v9H666.9z"/>
			<path class="st0" d="M735.5,537.1l11.5-28.7h10.9l-18.1,45.1h-8.5l-18.1-45.1H724L735.5,537.1z"/>
			<path class="st0" d="M815.1,508.4v9h-22.4v9.3h20.2v8.5h-20.2v9.3h23.1v8.8h-33.2v-45.1h32.4V508.4z"/>
		</g>
	</g>
	<g>
		<path class="st1" d="M366.8,529.5c-8,29.2-27.8,36.1-35.4,39.3c0,0-22.8,0.8-47.4-25.3c-4.2-4.7-17.3-20.6-26.5-31.8
			c-5.6-6.8-9.7-11.8-9.7-11.8s-2.1-2.5-5.4-6.5c-10.5-12.3-33.7-38.4-45.4-42c-2.5-1.3-22.9-12.1-40.3,10.8
			c-1.5,2.1-16.3,16.9-22.6,42.8c-0.6-4.6-0.7-8.4-0.8-10.7c-0.1-1.7-0.1-3.4-0.1-5.1c0.5-36.4,24.4-51.9,35.5-57.1
			c1.8-0.8,3.7-1.7,5.6-2.3c0,0,16.9-3.3,42.2,14.9c3.9,3.1,21.4,19.4,36.5,37c3.5,4,6.8,8.1,9.8,12.1c0.6,0.8,2.3,3.3,4.9,6.8
			c8.7,11.7,26.5,34.6,37.7,40.1c3.6,2.2,18.9,13.8,37,7.2C343.8,547.4,356.8,542.2,366.8,529.5z"/>
		<path class="st0" d="M174.2,429.9c-16.4,5.4-49.1,27-39.4,79.5c11.8,50.2,59.1,33.5,97.3-5.6c28.1-30.5,49.6-50.4,64-59.7
			c42-23.8,69-17.9,81.7,13.6c16.5,43.6-1.9,110.7-46.4,111.1c49.3-16.6,45.4-90.9,20.6-105.9c-30.1-15.9-75.6,24.9-98.6,53.8
			c-12.6,14.3-33.7,35.4-62.3,47.6C103.3,603.7,90.7,442.2,174.2,429.9z"/>
	</g>
</g>
</svg>
