<svg id="Capa_1" enable-background="new 0 0 512 512" height="512" viewBox="0 0 512 512" width="512" xmlns="http://www.w3.org/2000/svg"><g><g><path d="m387.255 407.206h-337.81c-27.039 0-48.959-21.92-48.959-48.959v-309.282c0-27.039 21.92-48.959 48.959-48.959h337.81c27.039 0 48.959 21.92 48.959 48.959v309.282c0 27.039-21.92 48.959-48.959 48.959z" fill="#e28086"/><path d="m67.818 407.199h-18.367c-27.047 0-48.965-21.918-48.965-48.956v-309.278c0-27.038 21.918-48.965 48.965-48.965h18.367c-27.047 0-48.965 21.927-48.965 48.965v309.279c0 27.038 21.918 48.955 48.965 48.955z" fill="#dd636e"/><path d="m409.913 106.464v251.785c0 12.512-10.143 22.654-22.654 22.654h-337.817c-12.512 0-22.654-10.143-22.654-22.654v-251.785c0-15.322 12.421-27.743 27.743-27.743h327.64c15.321 0 27.742 12.421 27.742 27.743z" fill="#f9f6f9"/><path d="m78.006 380.911h-28.564c-12.511 0-22.654-10.144-22.654-22.654v-251.793c0-15.316 12.423-27.739 27.739-27.739h28.563c-15.325 0-27.739 12.423-27.739 27.739v251.793c0 12.51 10.144 22.654 22.655 22.654z" fill="#dddaec"/><g fill="#f1f4f6"><circle cx="42.823" cy="40.239" r="16.035"/><circle cx="93.801" cy="40.239" r="16.035"/><circle cx="144.779" cy="40.239" r="16.035"/></g></g><path d="m462.958 116.264h-198.388c-26.817 0-48.556 21.739-48.556 48.556v298.623c0 26.817 21.739 48.556 48.556 48.556h198.388c26.817 0 48.556-21.739 48.556-48.556v-298.623c0-26.817-21.74-48.556-48.556-48.556z" fill="#4a80aa"/><path d="m292.103 512h-27.534c-26.818 0-48.555-21.738-48.555-48.555v-298.625c0-26.818 21.738-48.555 48.555-48.555h27.534c-26.81 0-48.555 21.738-48.555 48.555v298.625c0 26.817 21.745 48.555 48.555 48.555z" fill="#407093"/><path d="m479.664 175.807v276.648c0 15.296-12.398 27.693-27.693 27.693h-176.417c-15.288 0-27.694-12.398-27.694-27.693v-276.648c0-15.296 12.406-27.694 27.694-27.694h27.048v1.305c0 15.813 12.82 28.633 28.633 28.633h65.061c15.814 0 28.633-12.82 28.633-28.633v-1.305h27.041c15.296.001 27.694 12.399 27.694 27.694z" fill="#f1f4f6"/><path d="m302.037 480.149h-26.483c-15.288 0-27.693-12.398-27.693-27.693v-276.649c0-15.296 12.405-27.694 27.693-27.694h26.483c-15.288 0-27.694 12.398-27.694 27.694v276.648c0 15.296 12.406 27.694 27.694 27.694z" fill="#f9f6f9"/><path d="m395.538 163.567h-63.548c-4.268 0-7.726-3.459-7.726-7.726s3.459-7.726 7.726-7.726h63.548c4.268 0 7.726 3.459 7.726 7.726 0 4.266-3.458 7.726-7.726 7.726z" fill="#407093"/><g><path d="m423.746 382.666c0-33.126-26.854-59.981-59.981-59.981s-59.981 26.854-59.981 59.981z" fill="#e7a52e"/><path d="m383.242 325.917c-23.571 8.081-40.518 30.433-40.518 56.748h-38.94c0-33.127 26.861-59.979 59.988-59.979 6.811 0 13.367 1.134 19.47 3.231z" fill="#e49824"/><circle cx="363.765" cy="268.793" fill="#fbf1dd" r="59.981"/><path d="m383.242 325.541c-6.104 2.097-12.659 3.231-19.47 3.231-33.127 0-59.988-26.853-59.988-59.979 0-33.127 26.861-59.988 59.988-59.988 6.811 0 13.367 1.134 19.47 3.231-23.571 8.081-40.518 30.441-40.518 56.757.001 26.315 16.947 48.666 40.518 56.748z" fill="#f7e3c1"/></g><path d="m435.819 424.264h-144.111c-4.268 0-7.726-3.459-7.726-7.726s3.459-7.726 7.726-7.726h144.111c4.268 0 7.726 3.459 7.726 7.726s-3.459 7.726-7.726 7.726z" fill="#e28086"/><path d="m435.819 450.731h-144.111c-4.268 0-7.726-3.459-7.726-7.726s3.459-7.726 7.726-7.726h144.111c4.268 0 7.726 3.459 7.726 7.726s-3.459 7.726-7.726 7.726z" fill="#e28086"/><g fill="#d0cee7"><g><path d="m182.725 301.819h-122.005c-4.268 0-7.726-3.459-7.726-7.726s3.459-7.726 7.726-7.726h122.005c4.268 0 7.726 3.459 7.726 7.726s-3.458 7.726-7.726 7.726z"/><path d="m182.725 328.286h-122.005c-4.268 0-7.726-3.459-7.726-7.726s3.459-7.726 7.726-7.726h122.005c4.268 0 7.726 3.459 7.726 7.726s-3.458 7.726-7.726 7.726z"/></g><path d="m145.842 266.709c-4.268 0-7.726-3.459-7.726-7.726s3.459-7.726 7.726-7.726h20.595c.04-.001.078-.001.101-.001 4.268 0 7.726 3.459 7.726 7.726s-3.459 7.726-7.726 7.726v-7.726l-.012 7.726zm-29.89 0h-20.614c-4.268 0-7.726-3.459-7.726-7.726s3.459-7.726 7.726-7.726h20.614c4.268 0 7.726 3.459 7.726 7.726s-3.459 7.726-7.726 7.726zm-49.892-3.2c-1.432 0-2.878-.397-4.171-1.228-8.046-5.173-12.849-13.966-12.849-23.521v-.378c0-4.267 3.459-7.726 7.726-7.726s7.726 3.459 7.726 7.726v.378c0 4.273 2.151 8.207 5.753 10.523 3.59 2.308 4.629 7.089 2.321 10.678-1.476 2.296-3.964 3.548-6.506 3.548zm120.548-15.218c-.227 0-.456-.01-.686-.03-4.251-.374-7.393-4.123-7.019-8.374.032-.375.049-.755.049-1.127v-18.807c0-4.267 3.459-7.726 7.726-7.726s7.726 3.459 7.726 7.726v18.807c0 .822-.037 1.657-.11 2.481-.352 4.021-3.726 7.05-7.686 7.05zm-129.841-32.073c-4.268 0-7.726-3.459-7.726-7.726v-20.614c0-4.267 3.459-7.726 7.726-7.726s7.726 3.459 7.726 7.726v20.614c0 4.267-3.459 7.726-7.726 7.726zm129.911-18.429c-4.268 0-7.726-3.459-7.726-7.726v-20.614c0-4.267 3.459-7.726 7.726-7.726s7.726 3.459 7.726 7.726v20.614c0 4.267-3.458 7.726-7.726 7.726zm-129.911-32.075c-4.268 0-7.726-3.459-7.726-7.726v-18.767c0-.849.039-1.705.116-2.545.386-4.251 4.15-7.384 8.395-6.993 4.249.387 7.38 4.146 6.993 8.396-.034.376-.051.761-.051 1.143v18.767c-.001 4.266-3.46 7.725-7.727 7.725zm129.911-18.429c-4.268 0-7.726-3.459-7.726-7.726v-.338c0-4.284-2.158-8.222-5.774-10.537-3.594-2.3-4.642-7.079-2.341-10.673 2.3-3.595 7.077-4.642 10.673-2.342 8.073 5.169 12.894 13.973 12.894 23.551v.338c0 4.268-3.458 7.727-7.726 7.727zm-38.612-20.56h-20.614c-4.268 0-7.726-3.459-7.726-7.726s3.459-7.726 7.726-7.726h20.614c4.268 0 7.726 3.459 7.726 7.726.001 4.267-3.458 7.726-7.726 7.726zm-50.504 0h-20.572c-4.268 0-7.747-3.459-7.747-7.726s3.439-7.726 7.706-7.726h20.614c4.268 0 7.726 3.459 7.726 7.726s-3.459 7.726-7.727 7.726z"/></g></g></svg>