<svg xmlns="http://www.w3.org/2000/svg" viewBox="0 0 1000 400"><title>logo</title><g id="Badges"><path d="M386,121.44a23,23,0,0,0-7.42-3.18,39.2,39.2,0,0,0-9.33-1.05H350.79v36.1h18.46c7.09,0,12.86-1.46,17.17-4.33s6.29-7.34,6.29-13.81a17.44,17.44,0,0,0-1.8-8.18A15,15,0,0,0,386,121.44Zm-18.91,24.05h-4v-19.3h4q12.65,0,12.65,9.65T367.09,145.49Z"/><path d="M384.27,106.75a15.87,15.87,0,0,0,4.45-11.69,15.9,15.9,0,0,0-4.45-11.69c-2.95-3-7.95-4.44-14.85-4.44H350.79V111.2h18.63C376.32,111.2,381.32,109.7,384.27,106.75Zm-21.18-4.7V86.74h4q8.32,0,8.32,7.66t-8.32,7.65Z"/><path d="M412.61,124.85a35.86,35.86,0,0,0-4.58-8,28.41,28.41,0,0,0-6.66-6,20.49,20.49,0,0,0,4.16-5,34.87,34.87,0,0,0,2.83-6.24,27.16,27.16,0,0,0,1.33-9.07A29.29,29.29,0,0,0,407,77.5a26.15,26.15,0,0,0-7.66-9.32,34.58,34.58,0,0,0-11.81-5.66,57.21,57.21,0,0,0-15.23-1.91H328.81v111h45.27A55.44,55.44,0,0,0,391,169.21a35.76,35.76,0,0,0,12.82-7,30.94,30.94,0,0,0,8.07-11.07,36,36,0,0,0,2.83-14.48A30,30,0,0,0,412.61,124.85Zm-20.88,27.88c-4.83,4.37-12.33,6.59-22.31,6.59h-25V72.92h25c7.85,0,14.17,1.86,18.77,5.55s7,9.32,7,16.59a19.4,19.4,0,0,1-2.39,10.09,21.72,21.72,0,0,1-5.32,6.19,21.47,21.47,0,0,1-4.43,2.69A23,23,0,0,1,396,123.69h0c2.06,2.88,3.1,6.74,3.1,11.48C399.05,142.43,396.59,148.34,391.73,152.73Z"/><path d="M244.35,129a73,73,0,1,0,73,73A73,73,0,0,0,244.35,129ZM283.9,235.2a88.89,88.89,0,0,1-7.85,5.59,59,59,0,0,1-9.48,4.88,70.32,70.32,0,0,1-11.1,3.47,63.13,63.13,0,0,1-29.43-.85,33.79,33.79,0,0,1-11.67-6,23.51,23.51,0,0,1-6.79-9.06,29,29,0,0,1-2.19-11.32q0-8.62,3.89-14.5a34.42,34.42,0,0,1,10.26-10,30.63,30.63,0,0,1-5.38-8.21A24.2,24.2,0,0,1,212,179a26.89,26.89,0,0,1,2.26-11,26.45,26.45,0,0,1,6.23-8.77,28.55,28.55,0,0,1,9.33-5.73,32.23,32.23,0,0,1,11.6-2.05,35.72,35.72,0,0,1,12.59,2.12,29,29,0,0,1,9.69,5.87,25.06,25.06,0,0,1,6.16,8.91A29.45,29.45,0,0,1,272,179.6a21.14,21.14,0,0,1-3.82,12.59,41.13,41.13,0,0,1-9.19,9.34l12.87,10.75q1.69-1.69,3.32-3.53c1.09-1.23,2.43-2.88,4-5l18.95,16.13a90.77,90.77,0,0,1-6.65,8.07A79.28,79.28,0,0,1,283.9,235.2Zm-7.21-13a47.65,47.65,0,0,1-5.38,4.38A58.06,58.06,0,0,1,259.15,233a44.21,44.21,0,0,1-16.56,2.9,32.15,32.15,0,0,1-6.93-.78,20.8,20.8,0,0,1-6.43-2.55,14.71,14.71,0,0,1-4.81-4.74,13,13,0,0,1-1.91-7.21A13.73,13.73,0,0,1,226,210.8a33.93,33.93,0,0,1,9.91-6.86l4.24-2.13,22.07,18.39,2.69-1.83L243.3,200.26a50.45,50.45,0,0,0,12.45-9.13,16.63,16.63,0,0,0,4.67-11.95,15.42,15.42,0,0,0-1.49-6.79,16,16,0,0,0-4-5.31,18.3,18.3,0,0,0-6-3.39,22.56,22.56,0,0,0-7.43-1.2,19.1,19.1,0,0,0-6.65,1.2,18.79,18.79,0,0,0-5.8,3.39,16.16,16.16,0,0,0-4,5.31,16.75,16.75,0,0,0,1.35,16.2,41.23,41.23,0,0,0,7.64,8l3.53,3-3.39,1.7a47.66,47.66,0,0,0-5.87,3.46A24.41,24.41,0,0,0,223.5,209a19.36,19.36,0,0,0-3.19,5.23,16.71,16.71,0,0,0-1.2,6.44,16.48,16.48,0,0,0,2,8.2,17.12,17.12,0,0,0,5.24,5.81,23.64,23.64,0,0,0,7.49,3.39,33.64,33.64,0,0,0,8.77,1.13A46,46,0,0,0,260,236.05a64.4,64.4,0,0,0,13-6.93,60.75,60.75,0,0,0,11.18-10.19l-2.69-1.84A61,61,0,0,1,276.69,222.19Zm-40.46-27.88q-5.67-4.67-7.36-8.13a15.26,15.26,0,0,1-1.7-6.72,13,13,0,0,1,4-9.76,14.21,14.21,0,0,1,10.32-3.82,18.77,18.77,0,0,1,5.59.85,14.46,14.46,0,0,1,4.88,2.54,13.69,13.69,0,0,1,3.47,4.18,11.89,11.89,0,0,1,1.34,5.73q0,6.8-4.24,10.82a52.07,52.07,0,0,1-11.89,8Zm9.62-11.52a6.5,6.5,0,0,0,1.41-4.18q0-5.24-5.23-5.23a5.25,5.25,0,0,0-3.89,1.48,5.09,5.09,0,0,0-1.49,3.75,8.06,8.06,0,0,0,.92,3.75,16.19,16.19,0,0,0,3.61,4.17A18.08,18.08,0,0,0,245.85,182.79Zm-11,37.13a5.45,5.45,0,0,0,2.69,5,11.46,11.46,0,0,0,6.08,1.63,27.74,27.74,0,0,0,4.32-.35,24,24,0,0,0,4.17-1.06l-13.72-11.6Q234.81,216.25,234.81,219.92Z"/><rect x="241.33" y="62.18" width="6.04" height="73.66"/><rect x="241.33" y="260.51" width="6.04" height="81.55"/><path d="M685.91,290.77v-17.3h7.67a10.27,10.27,0,0,1,3.52.47,3.87,3.87,0,0,1,1.92,1.64,4.93,4.93,0,0,1,.72,2.61,4.35,4.35,0,0,1-1.19,3.1,6.06,6.06,0,0,1-3.68,1.61,5.91,5.91,0,0,1,1.38.86,12.19,12.19,0,0,1,1.9,2.3l3,4.71h-2.87l-2.29-3.6c-.67-1-1.22-1.84-1.66-2.39a5.14,5.14,0,0,0-1.16-1.15,3.29,3.29,0,0,0-1-.46,6.39,6.39,0,0,0-1.28-.09H688.2v7.69Zm2.29-9.67h4.92a7.52,7.52,0,0,0,2.45-.32,2.64,2.64,0,0,0,1.35-1,2.78,2.78,0,0,0,.46-1.55,2.6,2.6,0,0,0-.89-2,4.17,4.17,0,0,0-2.82-.79H688.2Z"/><path d="M713.08,286.73l2.19.27a5.32,5.32,0,0,1-1.92,3,5.84,5.84,0,0,1-3.59,1.06,5.74,5.74,0,0,1-4.35-1.69,6.61,6.61,0,0,1-1.62-4.75,6.94,6.94,0,0,1,1.63-4.91,5.55,5.55,0,0,1,4.23-1.75,5.35,5.35,0,0,1,4.1,1.71,6.82,6.82,0,0,1,1.59,4.82c0,.12,0,.31,0,.56H706a4.86,4.86,0,0,0,1.17,3.17,3.47,3.47,0,0,0,2.62,1.09,3.25,3.25,0,0,0,2-.61A4.05,4.05,0,0,0,713.08,286.73Zm-7-3.43h7a4.17,4.17,0,0,0-.8-2.37,3.25,3.25,0,0,0-2.63-1.23,3.37,3.37,0,0,0-2.46,1A3.87,3.87,0,0,0,706.11,283.3Z"/><path d="M718.54,287l2.1-.33a2.94,2.94,0,0,0,1,1.93,3.42,3.42,0,0,0,2.26.67,3.37,3.37,0,0,0,2.17-.59,1.79,1.79,0,0,0,.7-1.4,1.27,1.27,0,0,0-.62-1.13,9.18,9.18,0,0,0-2.17-.72,21.19,21.19,0,0,1-3.24-1,3.16,3.16,0,0,1-1.37-1.2,3.12,3.12,0,0,1-.46-1.68,3.18,3.18,0,0,1,.38-1.55,3.37,3.37,0,0,1,1-1.18,4.25,4.25,0,0,1,1.35-.62,6.44,6.44,0,0,1,1.84-.26,7.14,7.14,0,0,1,2.59.43,3.43,3.43,0,0,1,1.64,1.15,4.48,4.48,0,0,1,.74,1.94l-2.08.28a2.31,2.31,0,0,0-.82-1.51,3,3,0,0,0-1.92-.54,3.52,3.52,0,0,0-2.09.48,1.43,1.43,0,0,0-.62,1.14,1.19,1.19,0,0,0,.26.74,1.74,1.74,0,0,0,.81.56c.21.08.84.26,1.88.55a27,27,0,0,1,3.14,1,3.2,3.2,0,0,1,1.4,1.12,3.09,3.09,0,0,1,.51,1.81,3.57,3.57,0,0,1-.62,2,4,4,0,0,1-1.79,1.46,6.54,6.54,0,0,1-2.64.51,5.85,5.85,0,0,1-3.72-1A4.7,4.7,0,0,1,718.54,287Z"/><path d="M737.56,288.87l.3,1.87a7.52,7.52,0,0,1-1.6.19,3.54,3.54,0,0,1-1.79-.37,2,2,0,0,1-.9-1,7.62,7.62,0,0,1-.26-2.5v-7.21h-1.56v-1.65h1.56v-3.11l2.11-1.27v4.38h2.14v1.65h-2.14v7.32a3.86,3.86,0,0,0,.11,1.17.94.94,0,0,0,.37.42,1.45,1.45,0,0,0,.73.15A7.91,7.91,0,0,0,737.56,288.87Z"/><path d="M749.26,289.22a8,8,0,0,1-2.27,1.42,6.69,6.69,0,0,1-2.34.41,4.58,4.58,0,0,1-3.18-1,3.32,3.32,0,0,1-1.11-2.58,3.43,3.43,0,0,1,.42-1.68,3.5,3.5,0,0,1,1.1-1.22,5.1,5.1,0,0,1,1.53-.7,14.66,14.66,0,0,1,1.89-.31,19.16,19.16,0,0,0,3.78-.74c0-.29,0-.47,0-.55a2.34,2.34,0,0,0-.6-1.83,3.55,3.55,0,0,0-2.42-.72,3.77,3.77,0,0,0-2.21.53,3.2,3.2,0,0,0-1.05,1.85l-2.08-.28a5.13,5.13,0,0,1,.93-2.15,4,4,0,0,1,1.88-1.26,8.22,8.22,0,0,1,2.84-.45,7.58,7.58,0,0,1,2.61.38,3.38,3.38,0,0,1,1.47.95,3.19,3.19,0,0,1,.66,1.45,11.81,11.81,0,0,1,.11,1.95v2.84a27.78,27.78,0,0,0,.14,3.74,4.7,4.7,0,0,0,.53,1.51h-2.22A4.47,4.47,0,0,1,749.26,289.22Zm-.18-4.74a15.74,15.74,0,0,1-3.47.8,8.74,8.74,0,0,0-1.85.42,1.92,1.92,0,0,0-.84.69,1.89,1.89,0,0,0-.29,1,1.81,1.81,0,0,0,.64,1.42,2.76,2.76,0,0,0,1.88.56,4.38,4.38,0,0,0,2.19-.53,3.36,3.36,0,0,0,1.4-1.47,5.1,5.1,0,0,0,.34-2.12Z"/><path d="M764.18,290.77v-1.84a4.59,4.59,0,0,1-4,2.12,5,5,0,0,1-2.07-.43,3.39,3.39,0,0,1-1.43-1.06,4.12,4.12,0,0,1-.66-1.58,11.44,11.44,0,0,1-.13-2v-7.76h2.13v6.94a12.19,12.19,0,0,0,.13,2.25,2.18,2.18,0,0,0,.85,1.31,2.6,2.6,0,0,0,1.6.48,3.42,3.42,0,0,0,1.79-.49,2.73,2.73,0,0,0,1.19-1.33A6.77,6.77,0,0,0,764,285v-6.71h2.12v12.53Z"/><path d="M770.84,290.77V278.24h1.91v1.9a5,5,0,0,1,1.35-1.76,2.29,2.29,0,0,1,1.36-.43,4.1,4.1,0,0,1,2.18.69l-.73,2a3,3,0,0,0-1.56-.46,2,2,0,0,0-1.25.42,2.26,2.26,0,0,0-.79,1.16,8.44,8.44,0,0,0-.35,2.48v6.56Z"/><path d="M788.53,289.22a8,8,0,0,1-2.27,1.42,6.69,6.69,0,0,1-2.34.41,4.58,4.58,0,0,1-3.18-1,3.32,3.32,0,0,1-1.11-2.58,3.43,3.43,0,0,1,.42-1.68,3.5,3.5,0,0,1,1.1-1.22,5.1,5.1,0,0,1,1.53-.7,15,15,0,0,1,1.89-.31,19.16,19.16,0,0,0,3.78-.74c0-.29,0-.47,0-.55a2.34,2.34,0,0,0-.6-1.83,3.55,3.55,0,0,0-2.42-.72,3.77,3.77,0,0,0-2.21.53,3.2,3.2,0,0,0-1,1.85l-2.08-.28a5.13,5.13,0,0,1,.93-2.15,4,4,0,0,1,1.88-1.26,8.22,8.22,0,0,1,2.84-.45,7.58,7.58,0,0,1,2.61.38,3.38,3.38,0,0,1,1.47.95,3.19,3.19,0,0,1,.66,1.45,11.81,11.81,0,0,1,.11,1.95v2.84a29.7,29.7,0,0,0,.14,3.74,5,5,0,0,0,.53,1.51H789A4.47,4.47,0,0,1,788.53,289.22Zm-.18-4.74a15.74,15.74,0,0,1-3.47.8,8.74,8.74,0,0,0-1.85.42,1.92,1.92,0,0,0-.84.69,1.89,1.89,0,0,0-.29,1,1.81,1.81,0,0,0,.64,1.42,2.76,2.76,0,0,0,1.88.56,4.38,4.38,0,0,0,2.19-.53,3.36,3.36,0,0,0,1.4-1.47,5.1,5.1,0,0,0,.34-2.12Z"/><path d="M795.24,290.77V278.24h1.91V280a4.5,4.5,0,0,1,4-2.07,5.25,5.25,0,0,1,2.08.41,3.2,3.2,0,0,1,1.42,1.07,3.91,3.91,0,0,1,.66,1.57,11.89,11.89,0,0,1,.12,2.06v7.71H803.3v-7.63a5.61,5.61,0,0,0-.25-1.94,2,2,0,0,0-.88-1,2.75,2.75,0,0,0-1.48-.39,3.47,3.47,0,0,0-2.34.86q-1,.87-1,3.27v6.85Z"/><path d="M814.77,288.87l.3,1.87a7.52,7.52,0,0,1-1.6.19,3.54,3.54,0,0,1-1.79-.37,2,2,0,0,1-.9-1,7.62,7.62,0,0,1-.26-2.5v-7.21H809v-1.65h1.56v-3.11l2.11-1.27v4.38h2.14v1.65h-2.14v7.32a3.86,3.86,0,0,0,.11,1.17.94.94,0,0,0,.37.42,1.43,1.43,0,0,0,.72.15A7.88,7.88,0,0,0,814.77,288.87Z"/><rect x="686.73" y="302.85" width="17.62" height="2.01"/><path d="M386,289a23.24,23.24,0,0,0-7.42-3.19,39.72,39.72,0,0,0-9.33-1.05H350.79v36.1h18.46c7.09,0,12.86-1.45,17.17-4.32s6.29-7.34,6.29-13.81a17.49,17.49,0,0,0-1.8-8.19A14.94,14.94,0,0,0,386,289ZM367.09,313h-4V293.69h4q12.65,0,12.65,9.65T367.09,313Z"/><path d="M384.27,274.25a17.57,17.57,0,0,0,0-23.37c-2.95-2.95-7.95-4.45-14.85-4.45H350.79V278.7h18.63C376.32,278.7,381.32,277.21,384.27,274.25Zm-21.18-4.69V254.25h4q8.32,0,8.32,7.65t-8.32,7.66Z"/><path d="M412.61,292.36a35.94,35.94,0,0,0-4.58-8,28.14,28.14,0,0,0-6.66-6,20.68,20.68,0,0,0,4.16-5,35.32,35.32,0,0,0,2.83-6.25,27.08,27.08,0,0,0,1.33-9.07A29.25,29.25,0,0,0,407,245a26.06,26.06,0,0,0-7.66-9.32A34.4,34.4,0,0,0,387.48,230a56.8,56.8,0,0,0-15.23-1.91H328.81v111h45.27A55.43,55.43,0,0,0,391,336.71a35.46,35.46,0,0,0,12.82-7,31,31,0,0,0,8.07-11.06,36,36,0,0,0,2.83-14.48A30,30,0,0,0,412.61,292.36Zm-20.88,27.87c-4.83,4.37-12.33,6.59-22.31,6.59h-25v-86.4h25c7.85,0,14.17,1.87,18.77,5.55s7,9.32,7,16.6a19.36,19.36,0,0,1-2.39,10.08,21.91,21.91,0,0,1-5.32,6.2,22.38,22.38,0,0,1-4.43,2.69,26.91,26.91,0,0,1,6.35,3,27.65,27.65,0,0,1,6.52,6.67h0c2.06,2.88,3.1,6.75,3.1,11.49C399.05,309.93,396.59,315.84,391.73,320.23Z"/><path d="M422.18,60.61v111h37.61v-111Zm22,98.71h-6.34V72.92h6.34Z"/><path d="M536.6,126.68a47.27,47.27,0,0,0-5.49-10.15,50.08,50.08,0,0,0-7.16-8q-3.91-3.5-7.16-6.15t-5.49-4.66c-1.5-1.34-2.25-2.44-2.25-3.33a2.88,2.88,0,0,1,1-2.33,5.83,5.83,0,0,1,2.33-1.17,14.84,14.84,0,0,1,2.83-.41c1-.06,1.83-.09,2.5-.09,1.22,0,2.38.06,3.49.17s2.11.22,3,.33c1.11.11,2.11.23,3,.33V60.11l-7.15-1-7.16-.75a79.18,79.18,0,0,0-8-.41A48.42,48.42,0,0,0,490.5,60a35.25,35.25,0,0,0-11.74,6.07,27.72,27.72,0,0,0-7.82,10,31.93,31.93,0,0,0-2.83,13.81,31.13,31.13,0,0,0,2.33,12.4,39.65,39.65,0,0,0,5.91,9.74,54.75,54.75,0,0,0,7.65,7.65q4.08,3.34,7.66,6.08a70,70,0,0,1,5.91,5q2.32,2.25,2.33,4.41,0,5.67-7.66,5.66a71.82,71.82,0,0,1-8.57-.5A59.18,59.18,0,0,1,476.1,139a54.21,54.21,0,0,1-7.66-1.83v33.29a79.34,79.34,0,0,0,8.82,2q4.17.84,9.57,1.42a109.68,109.68,0,0,0,11.74.58,53.84,53.84,0,0,0,18.14-2.74,34.74,34.74,0,0,0,12.56-7.49,29.08,29.08,0,0,0,7.24-11.16,39.63,39.63,0,0,0,2.33-13.73A34,34,0,0,0,536.6,126.68ZM521,148.21a19.42,19.42,0,0,1-5.88,6.76,23.92,23.92,0,0,1-8.25,3.73,38.89,38.89,0,0,1-9.31,1.11c-1.81,0-3.6-.08-5.34-.25s-3.39-.36-5-.59c-1.75-.22-3.46-.5-5.06-.84l-.79-.17v-6.39l1.22.26c1.52.33,3.11.6,4.74.82a58.11,58.11,0,0,0,10.19.82c6.07,0,10.87-1.33,14.28-3.95s5-6.31,5-11.35a15,15,0,0,0-2.27-7.8,40,40,0,0,0-6-7.55c-2.46-2.46-5.13-4.94-7.93-7.36s-5.55-5-8.06-7.63a45.19,45.19,0,0,1-6.3-8.18,18,18,0,0,1-2.55-9.25c0-6.09,2.1-10.65,6.25-13.55s9.22-4.26,15.39-4.26c1,0,2,0,3,.08s1.86.15,2.66.26a19.91,19.91,0,0,0,2.36.16h1v6.34h-1a21.66,21.66,0,0,1-2.79-.18c-.87-.11-1.76-.19-2.68-.24-6.64-.4-11.62.61-14.35,2.92-2.34,2-3.47,4.75-3.47,8.47a13.22,13.22,0,0,0,2.25,7.2,45.45,45.45,0,0,0,6,7.32c2.5,2.49,5.17,5,7.94,7.35a109.54,109.54,0,0,1,8.07,7.73,44.46,44.46,0,0,1,6.3,8.52,19.72,19.72,0,0,1,2.54,9.65A21.21,21.21,0,0,1,521,148.21Z"/><path d="M535,60.61V89.74H555.5v81.88h36.62V89.74h20.47V60.61Zm65.75,18.32H577v80.39h-6.34V78.93h-23.8v-6h53.94Z"/><path d="M684.31,103.55c0-7.84-2.75-14-8.18-18.18s-13.28-6.44-23.1-6.44H640.39V128H653c9.83,0,17.6-2.14,23.11-6.37S684.31,111.39,684.31,103.55Zm-17.88,8.82a19.44,19.44,0,0,1-10.73,2.83h-1.84V90.57h1.84a19.44,19.44,0,0,1,10.73,2.83q4.41,2.84,4.41,9.48T666.43,112.37Z"/><path d="M691.31,135a36,36,0,0,0,7.49-7.33A43.21,43.21,0,0,0,704,118a38.21,38.21,0,0,0,2.33-14.15,43.7,43.7,0,0,0-3.74-18.55,38.18,38.18,0,0,0-10.41-13.57,46,46,0,0,0-15.72-8.32,66.2,66.2,0,0,0-19.73-2.83H618.41v111h35.45V143.49l16.65,28.13h41.61Zm-2.89,24.31h-7.5l-15.74-26.51A61,61,0,0,1,653,134H640.39v25.3h-6.34V72.92h19a53.43,53.43,0,0,1,14.76,2,35.93,35.93,0,0,1,11.9,5.83,28.19,28.19,0,0,1,8,9.57,28.78,28.78,0,0,1,2.94,13.28c0,7.2-1.86,13.15-5.55,17.69a31.92,31.92,0,0,1-13.61,9.63Z"/><path d="M824.05,93.56a58.35,58.35,0,0,0-31-31,58.34,58.34,0,0,0-45.27,0,58.27,58.27,0,0,0-31,31,58.22,58.22,0,0,0,0,45.27,58.18,58.18,0,0,0,31,31,58.22,58.22,0,0,0,45.27,0,58.27,58.27,0,0,0,31-31,58.34,58.34,0,0,0,0-45.27Zm-13.48,39.6a43.84,43.84,0,0,1-23.24,23.24,43.88,43.88,0,0,1-33.92,0,43.84,43.84,0,0,1-23.24-23.24,43.76,43.76,0,0,1,0-33.92A43.84,43.84,0,0,1,753.41,76a43.88,43.88,0,0,1,33.92,0,43.84,43.84,0,0,1,23.24,23.24,43.88,43.88,0,0,1,0,33.92Z"/><path d="M796.7,89.87a38.11,38.11,0,0,0-11.84-8,37.53,37.53,0,0,0-29,0A38,38,0,0,0,736,101.7a37.56,37.56,0,0,0,0,29,38,38,0,0,0,19.86,19.87,37.56,37.56,0,0,0,29,0,38,38,0,0,0,19.87-19.87,37.56,37.56,0,0,0,0-29A38.18,38.18,0,0,0,796.7,89.87Zm-4.86,35.4a23.32,23.32,0,0,1-12.4,12.4,23.39,23.39,0,0,1-18.14,0,23.32,23.32,0,0,1-12.4-12.4,23.39,23.39,0,0,1,0-18.14,23.32,23.32,0,0,1,12.4-12.4,23.39,23.39,0,0,1,18.14,0,23.32,23.32,0,0,1,12.4,12.4,23.39,23.39,0,0,1,0,18.14Z"/><path d="M492.12,312.49l-24.51-64.24-24.5,64.24Zm-17-7.81h-15l7.49-19.48Z"/><path d="M480.93,228.12H454.3l-42.11,111h34.95l3.66-10h33.62l3.67,10H523Zm13.45,90.38H440.85l-3.17,8.32h-6.81l32.89-86.4h7.71l32.89,86.4h-6.82Z"/><path d="M604,302.51a36,36,0,0,0,7.49-7.32,43,43,0,0,0,5.16-9.65A38,38,0,0,0,619,271.39a43.6,43.6,0,0,0-3.74-18.56,38.24,38.24,0,0,0-10.4-13.56A45.87,45.87,0,0,0,589.11,231a65.82,65.82,0,0,0-19.72-2.83H531.11v111h35.45V311l16.64,28.13h41.61Zm-2.89,24.31h-7.5l-15.74-26.5a61,61,0,0,1-12.15,1.2H553.08v25.3h-6.34v-86.4h19a53.38,53.38,0,0,1,14.76,2,35.73,35.73,0,0,1,11.9,5.82,28.25,28.25,0,0,1,8,9.58,28.78,28.78,0,0,1,2.94,13.28c0,7.19-1.87,13.14-5.55,17.69a32.12,32.12,0,0,1-13.61,9.63Z"/><path d="M597,271.06c0-7.85-2.76-14-8.19-18.18s-13.28-6.45-23.1-6.45H553.08v49.08h12.64c9.83,0,17.6-2.14,23.11-6.36S597,278.9,597,271.06Zm-17.89,8.82a19.52,19.52,0,0,1-10.73,2.83h-1.83V258.07h1.83a19.52,19.52,0,0,1,10.73,2.83q4.41,2.84,4.41,9.49T579.12,279.88Z"/></g></svg>