<svg xmlns="http://www.w3.org/2000/svg" viewBox="0 0 1000 400"><title>logo</title><g id="Badges"><polygon points="298.73 285.31 278.92 285.31 307.11 205.41 245.03 205.41 278.14 113.4 297.96 113.4 271.53 186.76 333.61 186.76 298.73 285.31"/><path d="M779,345.87H221a33.64,33.64,0,0,1-33.61-33.6V87.73A33.64,33.64,0,0,1,221,54.13H779a33.64,33.64,0,0,1,33.61,33.6V312.27A33.64,33.64,0,0,1,779,345.87ZM221,69.15a18.6,18.6,0,0,0-18.59,18.58V312.27A18.6,18.6,0,0,0,221,330.85H779a18.6,18.6,0,0,0,18.59-18.58V87.73A18.6,18.6,0,0,0,779,69.15Z"/><path d="M410.86,141.08h30.47L433,180.79a84.08,84.08,0,0,1-26,4q-13,0-20.23-7.59t-7.19-21.53A52.1,52.1,0,0,1,385,131.64a39,39,0,0,1,15.06-16.36,43.07,43.07,0,0,1,22.25-5.62q13.29,0,22.38,5.35l-7.34,15.43a29.92,29.92,0,0,0-15.29-4.5,19.59,19.59,0,0,0-11.66,3.62,24.58,24.58,0,0,0-8.09,10.72,38.1,38.1,0,0,0-3,15.13q0,13.18,10.44,13.19a33.65,33.65,0,0,0,6.64-.7L419,156.31H407.52Z"/><path d="M476.69,157.26l-5.64,26.57H451.52l15.43-73h19.33q12.59,0,19.28,5t6.69,15a25.52,25.52,0,0,1-3.54,13.58,22.41,22.41,0,0,1-10.54,8.84L509.36,179l2,4.79H490.08l-9.74-26.57Zm3.15-14.83h2.55a10.34,10.34,0,0,0,7.54-2.73q2.79-2.72,2.79-7.61a6.16,6.16,0,0,0-1.72-4.72,7.07,7.07,0,0,0-5-1.63h-2.65Z"/><path d="M522,183.83l15.43-73h19.83l-15.43,73Z"/><path d="M627.62,138.43q0,14-4.94,24.25a35.46,35.46,0,0,1-14.36,15.71q-9.42,5.45-22.3,5.44H562.49l15.44-73H598.7q13.78,0,21.36,7.22T627.62,138.43ZM589,167.65a15.13,15.13,0,0,0,9.82-3.5,22.53,22.53,0,0,0,6.72-10,42.47,42.47,0,0,0,2.39-14.76q0-6.24-2.69-9.47a9.34,9.34,0,0,0-7.55-3.22h-3.54l-8.59,40.91Z"/><path d="M433.64,235q0,12.59-8.57,19.75t-23.45,7.17h-4.29l-5,24.22H372.8l15.44-73h18.63q12.93,0,19.85,5.67T433.64,235Zm-32.81,10.94H404a9.72,9.72,0,0,0,7.34-2.92,10.29,10.29,0,0,0,2.8-7.42,6.42,6.42,0,0,0-1.8-4.75,6.67,6.67,0,0,0-4.94-1.8h-2.95Z"/><path d="M483.78,212q13,0,20.21,7.42t7.22,20.7a58.44,58.44,0,0,1-5,24.3q-5,11-13.71,16.88a35.48,35.48,0,0,1-20.28,5.87q-13.44,0-20.76-7.44T444.18,259a57.06,57.06,0,0,1,5.14-24.32q5.15-11.09,14-16.91A36.42,36.42,0,0,1,483.78,212Zm7.7,28.32q0-5.69-2.4-8.91a8.13,8.13,0,0,0-6.94-3.22,12.55,12.55,0,0,0-9.09,4.19,29.49,29.49,0,0,0-6.62,11.54,46.75,46.75,0,0,0-2.47,15q0,12.09,10,12.09c3.17,0,6.1-1.38,8.82-4.15a28.27,28.27,0,0,0,6.39-11.18A48.88,48.88,0,0,0,491.48,240.27Z"/><path d="M542.77,268.44l2-5.19,4.7-11.59,16.73-38.56H583v39.56a97.73,97.73,0,0,1-1.3,15.78q.51-1.4,6.65-17.28l15.13-38.06h19.33l-31.72,73H568v-31q0-7.74.65-16.19a148.06,148.06,0,0,1-5.9,17.44l-12.63,29.71H528.48l-2.45-73h18.48l-.5,36.61Q543.71,263,542.77,268.44Z"/><path d="M663.19,286.12H619.83l15.43-73h43.36l-3.25,15.84H651.55l-2.35,11.48h22.18l-3.6,15.84H645.6L642.76,270h23.82Z"/><path d="M706.59,259.55l-5.65,26.57H681.41l15.44-73h19.33q12.59,0,19.28,5t6.69,15a25.47,25.47,0,0,1-3.55,13.59,22.42,22.42,0,0,1-10.54,8.84l11.19,25.77,2,4.79H720l-9.74-26.57Zm3.14-14.83h2.55a10.36,10.36,0,0,0,7.54-2.72q2.8-2.73,2.8-7.62a6.17,6.17,0,0,0-1.72-4.72,7.08,7.08,0,0,0-5-1.62h-2.65Z"/></g></svg>