<svg xmlns="http://www.w3.org/2000/svg" viewBox="0 0 1000 400"><title>logo</title><g id="Badges"><polygon points="549.41 118.15 368.86 173.71 515.29 141.18 518.83 155.17 549.41 118.15"/><polygon points="476.51 105.9 378.8 150.18 453.33 108.93 449.58 101.65 476.51 105.9"/><polygon points="311.49 186.19 556.29 108.6 564.36 129.37 607.41 68.21 536.64 57.95 544.58 78.42 311.49 186.19"/><path d="M389.49,175.31a1.57,1.57,0,0,0-3.11.43,79.66,79.66,0,0,1,.66,8.88H362.15c0-2.79-.14-5.58-.36-8.32a1.59,1.59,0,0,0-1.69-1.44,1.56,1.56,0,0,0-1.44,1.69c.21,2.66.32,5.36.35,8.07h-46.2V165c24.47-.31,47.24-7.88,61.8-20.48.61.93,1.23,1.86,1.81,2.82a1.57,1.57,0,0,0,2.7-1.61c-.71-1.18-1.47-2.33-2.23-3.47a1.54,1.54,0,0,0-1.49-2.12A79.31,79.31,0,0,0,352.5,119a1.59,1.59,0,0,0-.79-.48,78.54,78.54,0,0,0-81.14,0,1.55,1.55,0,0,0-.22.12,79.5,79.5,0,0,0-23.89,22.45l-.08,0a1.57,1.57,0,0,0-.19.33,78.54,78.54,0,0,0-13.94,44.73,80.36,80.36,0,0,0,.41,8.08,1.56,1.56,0,0,0,1.56,1.41h.16a1.57,1.57,0,0,0,1.4-1.72c-.21-2-.31-4.12-.35-6.19h5.87a1.57,1.57,0,0,0,0-3.14h-5.87a75.38,75.38,0,0,1,12.45-40.05,73,73,0,0,0,16.49,10.56,115.84,115.84,0,0,0-3.51,19.28,1.57,1.57,0,0,0,1.41,1.71h.16a1.58,1.58,0,0,0,1.56-1.42,108.34,108.34,0,0,1,3.33-18.24A111.89,111.89,0,0,0,309.67,165v19.58H287.39a1.57,1.57,0,0,0,0,3.14h22.28v75.85a1.57,1.57,0,0,0,3.14,0V187.76H359c0,2.09-.07,4.19-.2,6.25a1.58,1.58,0,0,0,1.47,1.67h.1a1.57,1.57,0,0,0,1.56-1.47c.14-2.12.18-4.29.21-6.45h24.92c0,2.07-.14,4.15-.35,6.19a1.57,1.57,0,0,0,1.4,1.72h.16a1.56,1.56,0,0,0,1.56-1.41,80.13,80.13,0,0,0-.33-19Zm-76.68-64.87c8.82.46,17.23,4.77,24.41,12.17a116.21,116.21,0,0,1-24.41,2.87Zm-3.14,15a116.38,116.38,0,0,1-24.28-2.84c7.11-7.32,15.44-11.71,24.28-12.18Zm3.14,3.14a118.25,118.25,0,0,0,26.8-3.38c6.18,7.24,11.27,16.85,14.71,28.2-12.07,5.27-26.45,8.26-41.51,8.46Zm60,13.34a69.17,69.17,0,0,1-15.62,10.15,82.16,82.16,0,0,0-14.26-27.72c2.77-.79,5.47-1.67,8.1-2.66A76.16,76.16,0,0,1,372.81,142Zm-25.33-22.3q-3.33,1.16-6.83,2.09a49.91,49.91,0,0,0-10.74-9A76.35,76.35,0,0,1,347.48,119.66Zm-65.83,2c-2.3-.61-4.54-1.31-6.74-2.07a75.08,75.08,0,0,1,17.52-6.92A49,49,0,0,0,281.65,121.7Zm-32,20.27a76.42,76.42,0,0,1,21.7-20.27c2.61,1,5.29,1.87,8.05,2.65a82.12,82.12,0,0,0-14.18,27.74A69.42,69.42,0,0,1,249.68,142Zm18.51,11.48c3.43-11.21,8.53-20.87,14.77-28.18a118.67,118.67,0,0,0,26.71,3.35V161.9C294.65,161.7,280.27,158.72,268.19,153.45Z"/><path d="M300.93,285.48a23.6,23.6,0,0,1-8.61,4.34,38.64,38.64,0,0,1-10.71,1.45q-14.16,0-21.89-7.4T252,262.3V220.93H237.83v-16.1H252V185.19h20.13v19.64h23v16.1h-23v40.88q0,6.29,3.05,9.58t8.86,3.3a17.69,17.69,0,0,0,11.27-3.54Z"/><path d="M367.25,203.22v19.16a24.91,24.91,0,0,0-4.67-.49q-11.74,0-18.35,6.84t-6.6,19.72v41.69H317.51V204.19h19.16v12.55Q345.35,203.22,367.25,203.22Z"/><path d="M445.73,212.31q10,9.1,10.06,27.45v50.38h-19V279.68a23.35,23.35,0,0,1-10.54,8.61,41.13,41.13,0,0,1-16.5,3,40.41,40.41,0,0,1-16.9-3.3,26.09,26.09,0,0,1-11.19-9.17,23.3,23.3,0,0,1-4-13.28q0-11.59,8.62-18.6t27.12-7h22.22v-1.29q0-9-5.4-13.84t-16-4.83A46.33,46.33,0,0,0,400,222.21a35.16,35.16,0,0,0-11.83,6.28l-7.89-14.65A48.78,48.78,0,0,1,396.55,206a72.13,72.13,0,0,1,20.12-2.74Q435.66,203.22,445.73,212.31Zm-18.35,60.85a18.81,18.81,0,0,0,8.29-9.9v-10H414.9q-17.38,0-17.39,11.43a10.24,10.24,0,0,0,4.35,8.69q4.35,3.23,12.07,3.22A26,26,0,0,0,427.38,273.16Z"/><path d="M560.42,204.19l-36.86,85.95H502.79l-36.86-85.95h20.93l26.72,63.74,27.52-63.74Z"/><path d="M651.05,253.6H583.6a23.34,23.34,0,0,0,9.25,15q7.49,5.57,18.6,5.56,14.16,0,23.34-9.34l10.78,12.4a36.3,36.3,0,0,1-14.65,10.46,53.34,53.34,0,0,1-20,3.54q-14.16,0-25-5.63a40.61,40.61,0,0,1-16.66-15.7,44.27,44.27,0,0,1-5.87-22.78,45,45,0,0,1,5.71-22.61,40.57,40.57,0,0,1,15.86-15.7,46.32,46.32,0,0,1,22.86-5.63,45.1,45.1,0,0,1,22.45,5.55,39.35,39.35,0,0,1,15.45,15.62,47.27,47.27,0,0,1,5.56,23.26C651.37,249,651.26,251,651.05,253.6ZM591.57,225a24,24,0,0,0-8.13,15.21h48.77a23.75,23.75,0,0,0-7.89-15.13q-6.6-5.79-16.41-5.79A24.26,24.26,0,0,0,591.57,225Z"/><path d="M745.54,212.72q9.81,9.5,9.82,28.17v49.25H735.23V243.46q0-11.27-5.31-17t-15.13-5.71q-11.1,0-17.54,6.68t-6.44,19.23v43.46H670.68V204.19h19.16v11.1a31.46,31.46,0,0,1,12.56-9,45.14,45.14,0,0,1,17.06-3.06Q735.72,203.22,745.54,212.72Z"/><path d="M256.59,320.44c-.06,1-.12,2.18-.12,3.91v8.28c0,3.27-.64,5.27-2,6.51a7.58,7.58,0,0,1-5.18,1.71,9.25,9.25,0,0,1-4.74-1.18l.65-2a8,8,0,0,0,4.18,1.12c2.65,0,4.59-1.38,4.59-5v-1.59h-.06a5.08,5.08,0,0,1-4.53,2.38c-3.54,0-6.07-3-6.07-6.95,0-4.83,3.15-7.57,6.42-7.57a4.75,4.75,0,0,1,4.45,2.48h.06l.11-2.15Zm-2.68,5.62a3.67,3.67,0,0,0-.15-1.18,3.73,3.73,0,0,0-3.62-2.74c-2.47,0-4.24,2.1-4.24,5.39,0,2.8,1.41,5.13,4.21,5.13a3.8,3.8,0,0,0,3.6-2.65,4.77,4.77,0,0,0,.2-1.39Z"/><path d="M276.62,327.45c0,5.27-3.66,7.56-7.1,7.56-3.86,0-6.83-2.82-6.83-7.33,0-4.77,3.12-7.57,7.06-7.57C273.85,320.11,276.62,323.09,276.62,327.45Zm-11.31.14c0,3.12,1.79,5.48,4.33,5.48s4.33-2.33,4.33-5.54c0-2.41-1.21-5.47-4.27-5.47S265.31,324.88,265.31,327.59Z"/><path d="M291.9,334.69c.06-1,.12-2.42.12-3.68V313.78h2.56v9h.06a5.3,5.3,0,0,1,4.86-2.62c3.53,0,6,2.95,6,7.28,0,5.09-3.21,7.62-6.39,7.62a5.06,5.06,0,0,1-4.77-2.68h-.09l-.12,2.36Zm2.68-5.71a4.84,4.84,0,0,0,.12.94,4,4,0,0,0,3.89,3c2.71,0,4.33-2.21,4.33-5.47,0-2.86-1.48-5.31-4.25-5.31a4.13,4.13,0,0,0-3.94,3.18,5.09,5.09,0,0,0-.15,1.06Z"/><path d="M313.16,328c.06,3.51,2.3,5,4.89,5a9.42,9.42,0,0,0,3.95-.73l.44,1.85a11.57,11.57,0,0,1-4.74.88c-4.39,0-7-2.88-7-7.18s2.53-7.69,6.68-7.69c4.66,0,5.89,4.1,5.89,6.72a9.8,9.8,0,0,1-.08,1.2Zm7.6-1.85c0-1.65-.68-4.21-3.59-4.21-2.62,0-3.77,2.41-4,4.21Z"/><path d="M330.36,320.44l3.12,8.42c.33.94.68,2.06.92,2.91h.06c.26-.85.55-1.94.91-3l2.83-8.36h2.73l-3.88,10.16c-1.86,4.88-3.13,7.39-4.89,8.92A7,7,0,0,1,329,341.2l-.65-2.18a6.93,6.93,0,0,0,2.27-1.27,8,8,0,0,0,2.18-2.88,2.13,2.13,0,0,0,.2-.62,2.41,2.41,0,0,0-.17-.68l-5.28-13.13Z"/><path d="M358.84,327.45c0,5.27-3.65,7.56-7.1,7.56-3.86,0-6.83-2.82-6.83-7.33,0-4.77,3.12-7.57,7.07-7.57S358.84,323.09,358.84,327.45Zm-11.31.14c0,3.12,1.8,5.48,4.33,5.48s4.33-2.33,4.33-5.54c0-2.41-1.21-5.47-4.27-5.47S347.53,324.88,347.53,327.59Z"/><path d="M365.05,324.29c0-1.47,0-2.68-.11-3.85h2.29l.15,2.35h.06a5.26,5.26,0,0,1,4.71-2.68c2,0,5,1.18,5,6.07v8.51h-2.6v-8.22c0-2.29-.85-4.21-3.29-4.21a3.81,3.81,0,0,0-3.66,3.86v8.57h-2.59Z"/><path d="M396.65,313.78V331c0,1.26,0,2.71.12,3.68h-2.33l-.11-2.47h-.06a5.28,5.28,0,0,1-4.86,2.79c-3.45,0-6.1-2.91-6.1-7.24,0-4.74,2.92-7.66,6.39-7.66a4.77,4.77,0,0,1,4.3,2.18h.06v-8.51Zm-2.59,12.46a4.44,4.44,0,0,0-.12-1.09,3.81,3.81,0,0,0-3.74-3c-2.68,0-4.27,2.36-4.27,5.51,0,2.89,1.42,5.27,4.21,5.27a3.9,3.9,0,0,0,3.8-3.09,4.42,4.42,0,0,0,.12-1.12Z"/><path d="M416,316.43a1.61,1.61,0,0,1-3.21,0,1.58,1.58,0,0,1,1.62-1.62A1.54,1.54,0,0,1,416,316.43Zm-2.89,18.26V320.44h2.6v14.25Z"/><path d="M422.92,324.29c0-1.47,0-2.68-.12-3.85h2.27l.12,2.29h.09a4.91,4.91,0,0,1,4.47-2.62,4.22,4.22,0,0,1,4,2.86h.06a5.89,5.89,0,0,1,1.59-1.86,4.89,4.89,0,0,1,3.15-1c1.88,0,4.68,1.24,4.68,6.19v8.39h-2.53v-8.07c0-2.74-1-4.39-3.09-4.39a3.35,3.35,0,0,0-3.07,2.36,4.16,4.16,0,0,0-.2,1.29v8.81h-2.54v-8.54c0-2.27-1-3.92-3-3.92a3.88,3.88,0,0,0-3.42,3.86v8.6h-2.53Z"/><path d="M458.32,334.69l-.21-1.8H458a5.28,5.28,0,0,1-4.35,2.12,4.06,4.06,0,0,1-4.36-4.09c0-3.44,3.06-5.33,8.57-5.3v-.3a2.94,2.94,0,0,0-3.24-3.29,7.06,7.06,0,0,0-3.71,1.06l-.59-1.71a8.79,8.79,0,0,1,4.68-1.27c4.36,0,5.42,3,5.42,5.83v5.33a20.83,20.83,0,0,0,.23,3.42Zm-.38-7.27c-2.83-.06-6,.44-6,3.21a2.29,2.29,0,0,0,2.44,2.47,3.55,3.55,0,0,0,3.45-2.39,2.63,2.63,0,0,0,.15-.82Z"/><path d="M479.85,320.44c-.06,1-.12,2.18-.12,3.91v8.28c0,3.27-.65,5.27-2,6.51a7.61,7.61,0,0,1-5.19,1.71,9.28,9.28,0,0,1-4.74-1.18l.65-2a8,8,0,0,0,4.18,1.12c2.65,0,4.6-1.38,4.6-5v-1.59h-.06a5.11,5.11,0,0,1-4.54,2.38c-3.53,0-6.06-3-6.06-6.95,0-4.83,3.15-7.57,6.42-7.57a4.74,4.74,0,0,1,4.44,2.48h.06l.12-2.15Zm-2.68,5.62a3.67,3.67,0,0,0-.15-1.18,3.74,3.74,0,0,0-3.62-2.74c-2.48,0-4.24,2.1-4.24,5.39,0,2.8,1.41,5.13,4.21,5.13A3.78,3.78,0,0,0,477,330a4.47,4.47,0,0,0,.21-1.39Z"/><path d="M489.68,316.43a1.61,1.61,0,0,1-3.21,0,1.58,1.58,0,0,1,1.62-1.62A1.54,1.54,0,0,1,489.68,316.43Zm-2.88,18.26V320.44h2.59v14.25Z"/><path d="M496.63,324.29c0-1.47,0-2.68-.12-3.85h2.3l.15,2.35H499a5.23,5.23,0,0,1,4.71-2.68c2,0,5,1.18,5,6.07v8.51h-2.6v-8.22c0-2.29-.85-4.21-3.29-4.21a3.81,3.81,0,0,0-3.66,3.86v8.57h-2.59Z"/><path d="M523.81,334.69l-.2-1.8h-.09a5.32,5.32,0,0,1-4.36,2.12,4.06,4.06,0,0,1-4.36-4.09c0-3.44,3.07-5.33,8.57-5.3v-.3c0-1.17-.32-3.29-3.24-3.29a7.09,7.09,0,0,0-3.71,1.06l-.59-1.71a8.83,8.83,0,0,1,4.69-1.27c4.35,0,5.41,3,5.41,5.83v5.33a19.72,19.72,0,0,0,.24,3.42Zm-.38-7.27c-2.83-.06-6,.44-6,3.21a2.3,2.3,0,0,0,2.45,2.47,3.54,3.54,0,0,0,3.44-2.39,2.63,2.63,0,0,0,.15-.82Z"/><path d="M536.06,316.34v4.1h3.72v2h-3.72v7.69c0,1.76.51,2.76,2,2.76a5.7,5.7,0,0,0,1.5-.17l.12,1.94a6.29,6.29,0,0,1-2.3.35,3.58,3.58,0,0,1-2.8-1.09c-.73-.76-1-2-1-3.71v-7.77h-2.21v-2h2.21V317Z"/><path d="M548.52,316.43a1.61,1.61,0,0,1-3.21,0,1.58,1.58,0,0,1,1.62-1.62A1.54,1.54,0,0,1,548.52,316.43Zm-2.88,18.26V320.44h2.59v14.25Z"/><path d="M568.37,327.45c0,5.27-3.65,7.56-7.1,7.56-3.85,0-6.83-2.82-6.83-7.33,0-4.77,3.12-7.57,7.07-7.57S568.37,323.09,568.37,327.45Zm-11.31.14c0,3.12,1.8,5.48,4.33,5.48s4.33-2.33,4.33-5.54c0-2.41-1.21-5.47-4.27-5.47S557.06,324.88,557.06,327.59Z"/><path d="M574.58,324.29c0-1.47,0-2.68-.11-3.85h2.29l.15,2.35H577a5.26,5.26,0,0,1,4.71-2.68c2,0,5,1.18,5,6.07v8.51h-2.59v-8.22c0-2.29-.86-4.21-3.3-4.21a3.78,3.78,0,0,0-3.65,3.86v8.57h-2.6Z"/></g></svg>