<svg xmlns="http://www.w3.org/2000/svg" viewBox="0 0 1000 400"><title>logo</title><g id="Badges"><path d="M289.56,70.6V82.14a85.75,85.75,0,1,0,0,148.43v33a42.88,42.88,0,0,1-85.76,0H160.93a85.75,85.75,0,0,0,171.5,0V70.6ZM246.68,199.23a42.88,42.88,0,1,1,42.88-42.88A42.93,42.93,0,0,1,246.68,199.23Z"/><path d="M463,133.73h21.64v41.53a61.86,61.86,0,0,1-19.3,9.65,75,75,0,0,1-22.08,3.36,59.84,59.84,0,0,1-28.65-6.8,50.58,50.58,0,0,1-20-18.86,51.91,51.91,0,0,1-7.24-27.27,51.9,51.9,0,0,1,7.24-27.26,50.23,50.23,0,0,1,20.1-18.86,60.93,60.93,0,0,1,28.95-6.8A63.39,63.39,0,0,1,468.16,87a48.36,48.36,0,0,1,18.42,13.16l-15.21,14q-11-11.55-26.46-11.55a36.12,36.12,0,0,0-17.4,4.1,29.38,29.38,0,0,0-11.84,11.55,36.32,36.32,0,0,0,0,34.06,30,30,0,0,0,11.77,11.63,35,35,0,0,0,17.18,4.16A38.44,38.44,0,0,0,463,163.71Z"/><path d="M577.66,186.51,557.93,158H536.14v28.51H512.46V84.17h44.3q13.59,0,23.61,4.53a35.1,35.1,0,0,1,15.42,12.87q5.41,8.34,5.41,19.74T595.72,141a34.83,34.83,0,0,1-15.57,12.65l23,32.89Zm-6-78.43q-5.56-4.6-16.23-4.61h-19.3v35.67h19.3q10.66,0,16.23-4.67t5.55-13.16Q577.22,112.69,571.67,108.08Z"/><path d="M693.16,164.58H645.65l-9.07,21.93H612.31L657.93,84.17h23.39l45.76,102.34H702.23Zm-7.45-18-16.23-39.18L653.25,146.6Z"/><path d="M786.44,150.26v36.25H762.75V150L723.13,84.17h25.15l27.34,45.47L803,84.17h23.25Z"/><path d="M393.88,230.38h46.5q16.67,0,29.46,6.36a47.62,47.62,0,0,1,19.88,17.91q7.09,11.55,7.09,26.9t-7.09,26.9a47.62,47.62,0,0,1-19.88,17.91q-12.79,6.36-29.46,6.36h-46.5Zm45.33,82.89q15.35,0,24.49-8.55t9.14-23.17q0-14.62-9.14-23.18t-24.49-8.55H417.57v63.45Z"/><path d="M599.74,313.71v19H520.5V230.38h77.34v19H544v22.23h47.51V290H544v23.68Z"/><path d="M644.84,327.67A50.62,50.62,0,0,1,625,308.81a55,55,0,0,1,0-54.53,50.69,50.69,0,0,1,19.88-18.86,63.44,63.44,0,0,1,52.49-2.12,48.26,48.26,0,0,1,18.06,13.45l-15.21,14q-10.38-12-25.73-12a34.23,34.23,0,0,0-17,4.16,29.61,29.61,0,0,0-11.62,11.63,36.57,36.57,0,0,0,0,33.92,29.58,29.58,0,0,0,11.62,11.62,34.13,34.13,0,0,0,17,4.17q15.34,0,25.73-12.14l15.21,14a47.42,47.42,0,0,1-18.13,13.59,60.21,60.21,0,0,1-24.13,4.68A58.69,58.69,0,0,1,644.84,327.67Z"/><path d="M774.45,292.51l-13.74,14.33v25.88H737.17V230.38h23.54v47.8L806,230.38h26.32L790,276l44.88,56.73H807.2Z"/></g></svg>