<svg id="Layer_2" enable-background="new 0 0 512 512" height="512" viewBox="0 0 512 512" width="512" xmlns="http://www.w3.org/2000/svg"><g><path d="m420 440h-390c-11.046 0-20-8.954-20-20v-390c0-11.046 8.954-20 20-20h390c11.046 0 20 8.954 20 20v390c0 11.046-8.954 20-20 20z" fill="#edeff1"/><path d="m30 10c-11.046 0-20 8.954-20 20v34.706 20.294h430v-20.294-34.706c0-11.046-8.954-20-20-20z" fill="#6e83b7"/><g fill="#d3d3d3"><g><path d="m50 393h70v14h-70z"/><path d="m50 347.167h70v14h-70z"/><path d="m50 301.333h70v14h-70z"/><path d="m50 255.5h70v14h-70z"/><path d="m50 209.667h70v14h-70z"/><path d="m50 163.833h70v14h-70z"/><path d="m50 118h70v14h-70z"/></g><g><path d="m330 209.667h70v14h-70z"/><path d="m330 163.833h70v14h-70z"/><path d="m330 118h70v14h-70z"/></g></g><g fill="#d3d3d3"><path d="m154 393h142v14h-142z"/><path d="m154 347.167h142v14h-142z"/><path d="m154 301.333h142v14h-142z"/><path d="m154 255.5h142v14h-142z"/></g><g><g><g fill="#6e83b7"><path d="m172.107 163h105.786v14h-105.786z" transform="matrix(.183 -.983 .983 .183 16.702 360.098)"/><g><path d="m257.134 212.398-8.623-11.029 40.124-31.369-40.124-31.369 8.623-11.029 54.231 42.398z"/><path d="m192.866 212.398-54.231-42.398 54.231-42.398 8.623 11.029-40.124 31.369 40.124 31.369z"/></g></g></g></g><g><circle cx="50" cy="47.5" fill="#ffb0aa" r="17.5"/><circle cx="105" cy="47.5" fill="#ffe352" r="17.5"/><circle cx="160" cy="47.5" fill="#98ca69" r="17.5"/></g><g><path d="m494.5 502h-169c-4.142 0-7.5-3.358-7.5-7.5v-231c0-4.142 3.358-7.5 7.5-7.5h169c4.142 0 7.5 3.358 7.5 7.5v231c0 4.142-3.358 7.5-7.5 7.5z" fill="#6e83b7"/><g><g fill="#466089"><path d="m376 373v-35c0-1.657-1.343-3-3-3h-35c-1.657 0-3 1.343-3 3v35c0 1.657 1.343 3 3 3h35c1.657 0 3-1.343 3-3z"/><path d="m430.5 373v-35c0-1.657-1.343-3-3-3h-35c-1.657 0-3 1.343-3 3v35c0 1.657 1.343 3 3 3h35c1.657 0 3-1.343 3-3z"/><path d="m485 373v-35c0-1.657-1.343-3-3-3h-35c-1.657 0-3 1.343-3 3v35c0 1.657 1.343 3 3 3h35c1.657 0 3-1.343 3-3z"/></g><g><path d="m376 427.5v-35c0-1.657-1.343-3-3-3h-35c-1.657 0-3 1.343-3 3v35c0 1.657 1.343 3 3 3h35c1.657 0 3-1.343 3-3z" fill="#466089"/><path d="m430.5 427.5v-35c0-1.657-1.343-3-3-3h-35c-1.657 0-3 1.343-3 3v35c0 1.657 1.343 3 3 3h35c1.657 0 3-1.343 3-3z" fill="#466089"/><path d="m485 482v-89.5c0-1.657-1.343-3-3-3h-35c-1.657 0-3 1.343-3 3v89.5c0 1.657 1.343 3 3 3h35c1.657 0 3-1.343 3-3z" fill="#ffe352"/></g><g fill="#466089"><path d="m376 482v-35c0-1.657-1.343-3-3-3h-35c-1.657 0-3 1.343-3 3v35c0 1.657 1.343 3 3 3h35c1.657 0 3-1.343 3-3z"/><path d="m430.5 482v-35c0-1.657-1.343-3-3-3h-35c-1.657 0-3 1.343-3 3v35c0 1.657 1.343 3 3 3h35c1.657 0 3-1.343 3-3z"/></g></g><path d="m318 315.5h184v5h-184z" fill="#466089"/><path d="m394 212h32v150h-32z" fill="#80d6fb" transform="matrix(0 1 -1 0 697 -123)"/><path d="m407.5 225.5h5v150h-5z" fill="#46bee8" transform="matrix(0 1 -1 0 710.5 -109.5)"/></g><g><circle cx="410" cy="196" fill="#ffe352" r="60"/><circle cx="410" cy="196" fill="#ffb236" r="54"/><circle cx="410" cy="196" fill="#ffe352" r="48"/><path d="m410 190c-4.411 0-8-3.589-8-8s3.589-8 8-8 8 3.589 8 8h12c0-8.938-5.895-16.523-14-19.078v-7.722h-12v7.722c-8.105 2.555-14 10.14-14 19.078 0 11.028 8.972 20 20 20 4.411 0 8 3.589 8 8s-3.589 8-8 8-8-3.589-8-8h-12c0 8.938 5.895 16.523 14 19.078v7.722h12v-7.722c8.105-2.555 14-10.14 14-19.078 0-11.028-8.972-20-20-20z" fill="#6e83b7"/></g></g></svg>